<svg xmlns="http://www.w3.org/2000/svg" viewBox="0 0 155.64 40"><defs><style>.cls-1{fill:#fff;}</style></defs><title>Asset 1</title><g id="Layer_2" data-name="Layer 2"><g id="Layer_1-2" data-name="Layer 1"><g id="bCQN9K.tif"><path class="cls-1" d="M18.87,0c1.31.24,2.64.41,3.93.73,4.84,1.18,7.12,4.1,7.12,9.06q0,11.29,0,22.59a8,8,0,0,0,.26,2.18c.69,2.47,1.12,2.85,3.66,3a14.75,14.75,0,0,0,4.39-.22,1.85,1.85,0,0,0,1.69-2c0-.6,0-1.2,0-1.81q0-14.5,0-29c0-1.63,0-1.63-1.68-1.63-.54,0-1.07,0-1.61,0-.71,0-.92-.36-.93-1S36.1,1,36.71,1C44.13,1,51.57.83,59,1c3.58.1,6.42,2.15,8.64,4.92a13.47,13.47,0,0,1,3,8.63c0,3.71.06,7.43,0,11.14C70.62,32,65.45,38.2,59.4,39.26a7,7,0,0,1-1.2.11c-9.84,0-19.67,0-29.51,0-3.39,0-6-1-7-4.61-.47.21-.58.62-.79.93a9.58,9.58,0,0,1-5.43,3.9c-.35.1-.69.24-1,.36H8A12,12,0,0,1,3.12,37.6,10.66,10.66,0,0,1,0,32.13V28.71c.07-.22.16-.44.21-.67a11.4,11.4,0,0,1,6.25-7.91,20.13,20.13,0,0,1,8.61-2.09,10.3,10.3,0,0,0,4.73-1.14,2.58,2.58,0,0,0,1.47-2.51c0-2.84-.09-5.69,0-8.53.08-1.89-.75-2.6-2.27-3.2a10.76,10.76,0,0,0-7.28,0C10.22,3.11,9.86,3.7,9.86,5.3c0,2.64,0,5.29,0,7.93,0,.47,0,.93-.65,1A5.66,5.66,0,0,1,2.88,10a6.44,6.44,0,0,1,.48-4,9.57,9.57,0,0,1,5.09-4.6A19.22,19.22,0,0,1,14.06,0ZM62,20.24c0-3.41,0-6.19,0-9a10.39,10.39,0,0,0-3.27-7.42,3.42,3.42,0,0,0-2.61-1c-2.14.06-4.28,0-6.42,0-.83,0-1.11.27-1.11,1.1q0,16.06,0,32.12c0,.83.29,1.11,1.11,1.1q3.26-.06,6.52,0a3.73,3.73,0,0,0,2.95-1.26A10.37,10.37,0,0,0,61.82,30C62.26,26.57,61.91,23.08,62,20.24ZM9.64,30c0,1.77,0,3.55,0,5.32a1.5,1.5,0,0,0,.82,1.47,6.65,6.65,0,0,0,4.25.83c3.62-.45,6-4.14,6.31-7.3.33-3.52.17-7.08.24-10.62,0-.57-.17-.7-.72-.49a13.72,13.72,0,0,1-3.73.69,13.07,13.07,0,0,0-4.92,1.26A3.82,3.82,0,0,0,9.64,24.8Q9.65,27.41,9.64,30Z"/><path class="cls-1" d="M154.81,40a21.22,21.22,0,0,1-2.35-.84,6.89,6.89,0,0,1,3.15-13c0,4.35,0,8.7,0,13.05C155.64,39.84,155.5,40.11,154.81,40Z"/><path class="cls-1" d="M124.91,25.19q1.18-3.72,2.36-7.44c1.65-5.23,3.3-10.46,4.92-15.7A1.32,1.32,0,0,1,133.69,1c3.71,0,7.43,0,11.14,0,.64,0,1.19,0,1.19.91s-.49,1-1.17,1h-.6c-2.34,0-2.46.12-2.46,2.41q0,15,0,29.91c0,2,.21,2.18,2.19,2.19.33,0,.67,0,1,0,.69,0,1,.19,1.05,1s-.34,1-1.08,1q-7.48,0-15,0c-.64,0-1.1-.14-1.1-.94s.48-.88,1.11-.89c3-.06,3.13-.19,3.13-3.23q0-13,0-26.1V7.08L133,7c-.49,1.56-1,3.13-1.47,4.69q-4,13.19-8.08,26.39c-.23.74-.5,1.23-1.41,1.24a1.44,1.44,0,0,1-1.57-1.17Q115,23.29,109.56,8.4a1.35,1.35,0,0,0-.5-.84V8.5q0,13.55,0,27.1c0,1.55.16,1.7,1.74,1.71.3,0,.6,0,.9,0,.71-.05.94.31.94,1s-.15,1.07-.88,1.05H88.16c-.45,0-1,.11-1.19-.49-.33-.91.06-1.49,1-1.51.64,0,1.27,0,1.91,0a1.22,1.22,0,0,0,1.24-1.39,6.6,6.6,0,0,0-.64-2.31c-.82-2.05-1.69-4.08-2.51-6.13a1.33,1.33,0,0,0-1.44-1c-2.74,0-5.49,0-8.23,0-.48,0-.94,0-1.2.52a18.51,18.51,0,0,0-2.22,7.24c-.09,2.16.6,2.9,2.78,3,.81.05,1,.43,1,1.15s-.29.86-.87.86H67.69c-.74,0-.84-.48-.85-1.08s.24-1,.88-.91c2.43.33,3.49-1.14,4.24-3.12q5.81-15.5,11.66-31c.09-.25.18-.5.28-.75C84.5.93,84.91.72,86.54,1c.71.11.77.69.94,1.16,1.52,4,3,8.08,4.53,12.13q4.1,11,8.2,22a1.36,1.36,0,0,0,1.53,1.09c1-.07,2,0,3,0a1.49,1.49,0,0,0,1.62-1.53c0-.27,0-.54,0-.8q0-14.86,0-29.71a6.92,6.92,0,0,0-.07-1.2A1.35,1.35,0,0,0,105,2.86c-.7,0-1.4,0-2.11,0s-.81-.44-.82-1,.24-.85.84-.85c4,0,8,0,11.95,0,.83,0,1,.58,1.17,1.14q2.82,7.52,5.63,15l3,8.06Zm-42.2-12-.26,0-3.66,10c-.23.64.19.65.63.65,2,0,4,0,6,0,.72,0,.77-.29.56-.86-.34-.94-.64-1.9-1-2.85Z"/></g></g></g></svg>