<?xml version="1.0" encoding="UTF-8"?>
<svg width="26px" height="26px" viewBox="0 0 26 26" version="1.1" xmlns="http://www.w3.org/2000/svg" xmlns:xlink="http://www.w3.org/1999/xlink">
    <!-- Generator: Sketch 43.2 (39069) - http://www.bohemiancoding.com/sketch -->
    <title>Shape</title>
    <desc>Created with Sketch.</desc>
    <defs></defs>
    <g id="Welcome" stroke="none" stroke-width="1" fill="none" fill-rule="evenodd">
        <path d="M13,0 C5.81969577,0 0,5.81974757 0,13 C0,20.1802524 5.81969577,26.0002072 13,26.0002072 C20.1803042,26.0002072 26,20.1802006 26,13 C26,5.81974757 20.1802524,0 13,0 Z M13,1.08335923 C19.5709049,1.08335923 24.9166926,6.42914685 24.9166926,13.0000518 C24.9166926,15.8908916 23.8809831,18.5441557 22.1618101,20.6098256 C20.9737249,20.1136463 18.1691209,19.1403477 16.4330114,18.62775 C16.2849345,18.5812397 16.2616276,18.5737815 16.2616276,17.9575455 C16.2616276,17.4486251 16.4710795,16.936131 16.6753002,16.5023626 C16.8964055,16.0310441 17.1587383,15.2386593 17.2529502,14.5276934 C17.5163706,14.2219062 17.8749871,13.6188774 18.1056224,12.4694818 C18.3076678,11.4564578 18.2135077,11.0877935 18.0792078,10.7418147 C18.0654308,10.7053004 18.0506179,10.6693559 18.0400521,10.6333596 C17.9892429,10.3958358 18.0590602,9.16175826 18.2326194,8.2043084 C18.3521582,7.54731113 18.201906,6.15029203 17.2973888,4.99457765 C16.7261094,4.26403398 15.6332202,3.36744117 13.6369015,3.24261946 L12.5419406,3.24365533 C10.5794429,3.36749297 9.48551781,4.26403398 8.91423836,4.99457765 C8.00972119,6.15034383 7.85952079,7.54736293 7.97905959,8.20384226 C8.15360282,9.16175826 8.22238424,10.3958358 8.17266273,10.6285947 C8.16209691,10.6693041 8.14728404,10.7053004 8.13247118,10.7418147 C7.99915537,11.0877935 7.90395939,11.4564578 8.10709249,12.4694818 C8.33664013,13.6188774 8.69530833,14.2219579 8.95976462,14.5276934 C9.05288887,15.2386075 9.31527343,16.0310441 9.53741464,16.5023626 C9.69926852,16.8472538 9.77545638,17.3164487 9.77545638,17.9797648 C9.77545638,18.5960008 9.75214942,18.603459 9.61355071,18.6473279 C7.81824158,19.1773799 4.96075666,20.20993 3.89536968,20.6764835 C2.14237564,18.6013355 1.08335923,15.9226408 1.08335923,13.0001036 C1.08330744,6.42909505 6.42909505,1.08335923 13,1.08335923 Z M4.68029626,21.5209205 C5.90013068,21.0229285 8.33234129,20.1553917 9.92980024,19.6835552 C10.858712,19.3905091 10.858712,18.6081722 10.858712,17.9797648 C10.858712,17.4587248 10.8227675,16.690631 10.5180679,16.041092 C10.3085642,15.5962398 10.0694348,14.833429 10.0166057,14.2362529 C10.0049522,14.0966183 9.93938199,13.9675495 9.83356839,13.875513 C9.68015681,13.7411095 9.36805074,13.2491773 9.16916469,12.2568706 C9.01155786,11.4713225 9.07821576,11.2994207 9.14275014,11.1333198 C9.17025235,11.0624148 9.1967187,10.9925976 9.21790213,10.9137682 C9.34800676,10.4382545 9.20303747,8.87617033 9.04543064,8.00972119 C8.97670101,7.63308074 9.0634029,6.56298058 9.76799815,5.66157101 C10.3995649,4.85385541 11.3559271,4.40366856 12.5757616,4.3259269 L13.6030287,4.32483924 C14.8556483,4.40366856 15.8120105,4.85385541 16.4446649,5.66157101 C17.1492602,6.56298058 17.234978,7.63308074 17.1661448,8.01018733 C17.0095738,8.87617033 16.8635686,10.4382027 16.9936733,10.9131985 C17.0159444,10.9925458 17.0412712,11.062363 17.0688252,11.133268 C17.1334114,11.2993171 17.2000175,11.4712707 17.0434466,12.2568188 C16.8446123,13.2491773 16.5314186,13.7411095 16.378007,13.8754612 C16.2732811,13.9674977 16.2077108,14.0965665 16.1949697,14.2362011 C16.1431246,14.8333772 15.904047,15.596188 15.6945952,16.0410402 C15.4544299,16.5515144 15.1783201,17.2312489 15.1783201,17.9574937 C15.1783201,18.5859529 15.1783201,19.3682898 16.1167101,19.6639774 C17.6454394,20.1157181 20.0893035,20.9551829 21.3799911,21.4627567 C19.2249779,23.5965864 16.2638029,24.9168997 13,24.9168997 C9.76587463,24.9168997 6.83007833,23.6198934 4.68029626,21.5209205 Z" id="Shape" fill="#265FC6" fill-rule="nonzero"></path>
    </g>
</svg>