<?xml version="1.0" encoding="UTF-8"?>
<svg width="16px" height="16px" viewBox="0 0 16 16" version="1.1" xmlns="http://www.w3.org/2000/svg" xmlns:xlink="http://www.w3.org/1999/xlink">
    <!-- Generator: Sketch 43.2 (39069) - http://www.bohemiancoding.com/sketch -->
    <title>grid</title>
    <desc>Created with Sketch.</desc>
    <defs></defs>
    <g id="Welcome" stroke="none" stroke-width="1" fill="none" fill-rule="evenodd">
        <g id="My-Projects" transform="translate(-1384.000000, -194.000000)" fill-rule="nonzero" fill="#757575">
            <g id="list-view" transform="translate(1378.000000, 194.000000)">
                <path d="M6,10 L10,10 L10,6 L6,6 L6,10 Z M6,4 L10,4 L10,0 L6,0 L6,4 Z M6,16 L10,16 L10,12 L6,12 L6,16 Z M12,10 L16,10 L16,6 L12,6 L12,10 Z M12,4 L16,4 L16,0 L12,0 L12,4 Z M12,16 L16,16 L16,12 L12,12 L12,16 Z M18,10 L22,10 L22,6 L18,6 L18,10 Z M18,4 L22,4 L22,0 L18,0 L18,4 Z M18,16 L22,16 L22,12 L18,12 L18,16 Z" id="grid"></path>
            </g>
        </g>
    </g>
</svg>