<?xml version="1.0" encoding="UTF-8"?>
<svg width="25px" height="26px" viewBox="0 0 25 26" version="1.1" xmlns="http://www.w3.org/2000/svg" xmlns:xlink="http://www.w3.org/1999/xlink">
    <!-- Generator: Sketch 43.2 (39069) - http://www.bohemiancoding.com/sketch -->
    <title>Fill 23</title>
    <desc>Created with Sketch.</desc>
    <defs></defs>
    <g id="Welcome" stroke="none" stroke-width="1" fill="none" fill-rule="evenodd">
        <g id="Review/Comment" transform="translate(-894.000000, -746.000000)" stroke="#265FC6" fill="#FFFFFF">
            <path d="M902.555667,771.002627 L913.056578,771.002627 C913.056578,771.002627 917.003348,760.367511 918.214008,757.105695 C919.432604,753.824127 916.431966,753.074012 915.306837,756.168029 C914.49826,758.397742 913.900425,758.699569 913.900425,758.699569 C913.900425,758.699569 912.664194,758.696659 912.869645,757.387065 C913.150927,755.605552 913.525676,753.449025 914.088241,750.167545 C914.436537,748.132525 911.181951,747.823468 910.900669,749.511161 C910.619386,751.198855 909.962473,755.699284 909.77554,756.730593 C909.587724,757.761991 908.395581,758.604339 908.27478,756.074385 C908.196303,754.376463 908.087846,751.892538 908.087846,748.573495 C908.087846,746.323237 904.524643,746.604607 904.524643,748.667403 C904.524643,750.108908 904.639272,755.979067 904.618992,757.105695 C904.597829,758.230824 904.099633,758.586792 903.399514,757.011964 C902.649134,755.32427 901.852902,753.325931 901.149255,751.6676 C900.117593,749.229879 897.322758,750.901437 897.961683,752.605178 C898.520721,754.093594 899.871581,757.387065 900.962322,759.918518 C901.521359,761.213563 902.227651,763.784606 900.493224,762.44997 C899.274628,761.512392 898.80553,760.574814 897.399119,759.637324 C895.992531,758.699569 894.574392,760.716954 895.11941,761.387887 C896.33827,762.88803 898.482805,765.248156 899.868936,767.513052 C900.900598,769.200745 902.555667,771.002627 902.555667,771.002627" id="Fill-23"></path>
        </g>
    </g>
</svg>