<?xml version="1.0" encoding="UTF-8"?>
<svg width="188px" height="188px" viewBox="0 0 188 188" version="1.1" xmlns="http://www.w3.org/2000/svg" xmlns:xlink="http://www.w3.org/1999/xlink">
    <!-- Generator: Sketch 43.2 (39069) - http://www.bohemiancoding.com/sketch -->
    <title>Group 5</title>
    <desc>Created with Sketch.</desc>
    <defs></defs>
    <g id="Welcome" stroke="none" stroke-width="1" fill="none" fill-rule="evenodd">
        <g id="Icons" transform="translate(-450.000000, -328.000000)">
            <g id="Group-5" transform="translate(454.000000, 332.000000)">
                <g id="selcted-copy-4" stroke-width="8" stroke="#fff">
                    <circle id="Oval" cx="90" cy="90" r="90"></circle>
                </g>
                <g id="if_16_1757453" transform="translate(30.000000, 45.000000)" fill-rule="nonzero" fill="#fff">
                    <path d="M60.0010323,0.216003716 C37.3206421,0.216003716 16.4402828,8.13613998 0,21.3363671 L7.46412842,28.8004955 C21.9603778,17.4723006 40.2246921,10.7041842 60.0010323,10.7041842 C79.7773725,10.7041842 98.0416868,17.4723006 112.537936,28.8004955 L120.002065,21.3363671 C103.561782,8.13613998 82.6814225,0.216003716 60.0010323,0.216003716 Z" id="XMLID_433_"></path>
                    <path d="M16.1522779,37.488645 L23.6644071,45.0007742 C33.9365839,37.6806483 46.4647994,33.360574 60.0010323,33.360574 C73.5372652,33.360574 86.0654807,37.6806483 96.3376575,45.0007742 L103.849787,37.488645 C91.6095761,28.3204872 76.4413151,22.8963939 60.0010323,22.8963939 C43.5607494,22.8963939 28.3924885,28.3204872 16.1522779,37.488645 Z" id="XMLID_432_"></path>
                    <path d="M32.4245579,53.7609249 L40.0326887,61.3690558 C45.9127899,57.9849976 52.7289072,56.0409642 59.9770319,56.0409642 C67.2251566,56.0409642 74.0412739,57.9849976 79.921375,61.3690558 L87.5295059,53.7609249 C79.5853692,48.5768357 70.1292066,45.5527837 59.9530315,45.5527837 C49.7768564,45.5527837 40.3686945,48.5768357 32.4245579,53.7609249 Z" id="XMLID_431_"></path>
                    <circle id="XMLID_430_" cx="60.0010323" cy="78.4573498" r="10.6081825"></circle>
                </g>
            </g>
        </g>
    </g>
</svg>