<?xml version="1.0" encoding="UTF-8"?>
<svg width="16px" height="16px" viewBox="0 0 16 16" version="1.1" xmlns="http://www.w3.org/2000/svg" xmlns:xlink="http://www.w3.org/1999/xlink">
    <!-- Generator: Sketch 43.2 (39069) - http://www.bohemiancoding.com/sketch -->
    <title>list-view</title>
    <desc>Created with Sketch.</desc>
    <defs></defs>
    <g id="Welcome" stroke="none" stroke-width="1" fill="none" fill-rule="evenodd">
        <g id="Dropbox2" transform="translate(-1378.000000, -194.000000)" fill-rule="nonzero" fill="#757575">
            <g id="list-view" transform="translate(1378.000000, 194.000000)">
                <path d="M0,9.6 L3.61904762,9.6 L3.61904762,6.4 L0,6.4 L0,9.6 Z M0,3.2 L3.61904762,3.2 L3.61904762,0 L0,0 L0,3.2 Z M0,16 L3.61904762,16 L3.61904762,12.8 L0,12.8 L0,16 Z M6.23809524,9.6 L16,9.6 L16,6.4 L6.23809524,6.4 L6.23809524,9.6 Z M6.23809524,3.2 L16,3.2 L16,0 L6.23809524,0 L6.23809524,3.2 Z M6.23809524,16 L16,16 L16,12.8 L6.23809524,12.8 L6.23809524,16 Z" id="Shape"></path>
            </g>
        </g>
    </g>
</svg>