<?xml version="1.0" encoding="UTF-8"?>
<svg width="16px" height="19px" viewBox="0 0 16 19" version="1.1" xmlns="http://www.w3.org/2000/svg" xmlns:xlink="http://www.w3.org/1999/xlink">
    <!-- Generator: Sketch 43.2 (39069) - http://www.bohemiancoding.com/sketch -->
    <title>pin</title>
    <desc>Created with Sketch.</desc>
    <defs></defs>
    <g id="Welcome" stroke="none" stroke-width="1" fill="none" fill-rule="evenodd">
        <g id="Review/Comment" transform="translate(-308.000000, -152.000000)" stroke="#265FC6" fill-rule="nonzero">
            <g id="pin" transform="translate(309.000000, 153.000000)">
                <path d="M6.96956522,0 C3.10434783,0 0,3.09 0,6.87 C0,10.65 6.96956522,18 6.96956522,18 C6.96956522,18 13.9391304,10.68 13.9391304,6.87 C13.9391304,3.06 10.8347826,0 6.96956522,0 Z" id="Shape"></path>
                <path d="M8.85652174,8.43 C8.36956522,8.91 7.7,9.21 6.96956522,9.21 C6.23913043,9.21 5.56956522,8.91 5.0826087,8.43 C4.59565217,7.95 4.29130435,7.29 4.29130435,6.57 C4.29130435,5.85 4.59565217,5.19 5.0826087,4.71 C5.56956522,4.23 6.23913043,3.93 6.96956522,3.93 C7.7,3.93 8.36956522,4.23 8.85652174,4.71 C9.34347826,5.19 9.64782609,5.85 9.64782609,6.57 C9.64782609,7.29 9.34347826,7.95 8.85652174,8.43 Z" id="Shape"></path>
            </g>
        </g>
    </g>
</svg>