<?xml version="1.0" encoding="UTF-8"?>
<svg width="30px" height="30px" viewBox="0 0 30 30" version="1.1" xmlns="http://www.w3.org/2000/svg" xmlns:xlink="http://www.w3.org/1999/xlink">
    <!-- Generator: Sketch 43.1 (39012) - http://www.bohemiancoding.com/sketch -->
    <title>1491915215_basics-19</title>
    <desc>Created with Sketch.</desc>
    <defs></defs>
    <g id="Welcome" stroke="none" stroke-width="1" fill="none" fill-rule="evenodd">
        <g id="All-Assets" transform="translate(-40.000000, -106.000000)" fill="#747474">
            <g id="1491915215_basics-19" transform="translate(40.000000, 106.000000)">
                <path d="M22.25,11.6065574 C22.25,5.90163934 17.55,1.32786885 11.8,1.32786885 C6,1.32786885 1.35,5.95081967 1.35,11.6065574 C1.35,17.3114754 6.05,21.8852459 11.8,21.8852459 C17.55,21.9344262 22.25,17.3114754 22.25,11.6065574 Z M30,28.6721311 L29.1,29.557377 L19.6,20.2131148 C17.5,22.0327869 14.8,23.1639344 11.75,23.1639344 C5.25,23.1639344 0,18 0,11.6065574 C0,5.21311475 5.25,0.0491803279 11.75,0.0491803279 C18.25,0.0491803279 23.5,5.21311475 23.5,11.6065574 C23.5,14.557377 22.35,17.2622951 20.5,19.3278689 L30,28.6721311 Z" id="Shape"></path>
            </g>
        </g>
    </g>
</svg>