<?xml version="1.0" encoding="UTF-8"?>
<svg width="188px" height="188px" viewBox="0 0 188 188" version="1.1" xmlns="http://www.w3.org/2000/svg" xmlns:xlink="http://www.w3.org/1999/xlink">
    <!-- Generator: Sketch 43.2 (39069) - http://www.bohemiancoding.com/sketch -->
    <title>Group 3</title>
    <desc>Created with Sketch.</desc>
    <defs></defs>
    <g id="Welcome" stroke="none" stroke-width="1" fill="none" fill-rule="evenodd">
        <g id="Icons" transform="translate(-450.000000, -573.000000)">
            <g id="Group-3" transform="translate(454.000000, 577.000000)">
                <g id="selcted-copy-5" stroke-width="8" stroke="#fff">
                    <circle id="Oval" cx="90" cy="90" r="90"></circle>
                </g>
                <g id="if_protection__security__shield__safety_2537370" transform="translate(33.000000, 25.000000)" fill-rule="nonzero" fill="#fff">
                    <path d="M114.526933,33.681918 C115.56331,71.7818381 93.9631902,100.009044 80.981512,113.454645 C71.572393,123.190862 61.3995525,130.554532 57.3086434,130.581832 L57.2815106,130.581832 C53.163302,130.554532 42.9904616,123.190862 33.6088032,113.454645 C20.6269559,100.009044 -1.00029423,71.7818381 0.0359161321,33.681918 C0.0905147685,32.454612 0.963262223,31.3909355 2.16326877,31.1182751 L4.26332195,30.6272195 C22.263254,26.645508 26.4904949,18.0001001 31.80871,7.06370973 C32.7087566,5.23631727 33.6088032,3.35449227 34.6178808,1.44553445 C35.0814705,0.572787273 36.00865,0 37.0178941,0 L77.5451216,0 C78.5541991,0 79.4813786,0.572787273 79.945135,1.44553445 C80.9542125,3.35449227 81.8540928,5.236317 82.7541394,7.06370973 C88.099654,18.0001001 92.299594,26.645508 110.299694,30.6272195 L112.399581,31.1182751 C113.626887,31.3909355 114.499634,32.454612 114.526933,33.681918 Z" id="Shape"></path>
                </g>
            </g>
        </g>
    </g>
</svg>