<?xml version="1.0" encoding="UTF-8"?>
<svg width="30px" height="20px" viewBox="0 0 30 20" version="1.1" xmlns="http://www.w3.org/2000/svg" xmlns:xlink="http://www.w3.org/1999/xlink">
    <!-- Generator: Sketch 43.2 (39069) - http://www.bohemiancoding.com/sketch -->
    <title>Shape</title>
    <desc>Created with Sketch.</desc>
    <defs></defs>
    <g id="Welcome" stroke="none" stroke-width="1" fill="none" fill-rule="evenodd" opacity="0.400000006">
        <g id="Request-Project" transform="translate(-694.000000, -607.000000)" fill-rule="nonzero" fill="#265FC6">
            <g id="Group" transform="translate(0.000000, -10.000000)">
                <path d="M718.515625,625.058511 C718.515625,624.978723 718.529018,624.898936 718.529018,624.819149 C718.529018,620.49734 715.060268,617 710.78125,617 C707.694196,617 705.042411,618.821809 703.796875,621.454787 C703.254464,621.182181 702.645089,621.022606 702.002232,621.022606 C700.026786,621.022606 698.379464,622.478723 698.064732,624.380319 C695.694196,625.191489 694,627.445479 694,630.098404 C694,633.43617 696.685268,636.148936 699.993304,636.148936 L706.857143,636.148936 L706.857143,630.829787 L703.629464,630.829787 L709,625.264628 L714.370536,630.823138 L711.142857,630.823138 L711.142857,636.142287 L718.529018,636.142287 C721.555804,636.142287 724,633.648936 724,630.597074 C724,627.545213 721.542411,625.06516 718.515625,625.058511 Z" id="Shape"></path>
            </g>
        </g>
    </g>
</svg>